<svg width="236" height="352" xmlns="http://www.w3.org/2000/svg" xmlns:xlink="http://www.w3.org/1999/xlink" xml:space="preserve" overflow="hidden"><defs><clipPath id="clip0"><rect x="0" y="184" width="236" height="352"/></clipPath></defs><g clip-path="url(#clip0)" transform="matrix(1 0 0 1 0 -184)"><path d="M308.733 0 308.733 271.238 343.569 271.371 343.569 142.267 427.732 142.267 427.732 108.096 343.569 108.096 343.569 34.1707 453.128 34.1707 453.128 0ZM516.018 55.0454C528.649 55.0454 538.754 44.8075 538.754 32.3093 538.754 19.811 528.516 9.57312 516.018 9.57312 503.386 9.57312 493.281 19.811 493.281 32.3093 493.281 44.8075 503.519 55.0454 516.018 55.0454ZM498.334 89.2161 498.334 271.238 533.169 271.238 533.169 89.2161Z" transform="matrix(1.00406 0 0 1 0 184.293)"/><path d="M662.539 83.8977C616.136 83.8977 583.827 123.121 583.827 169.657 583.827 216.193 616.136 255.416 662.539 255.416 683.813 255.416 701.231 247.173 713.995 233.877L713.995 257.942C713.995 288.124 690.328 313.254 659.348 313.254 648.18 313.254 637.144 308.999 628.369 302.883L610.818 333.198C624.779 342.239 641.399 347.424 659.215 347.424 708.677 347.424 748.698 307.403 748.698 257.942L748.698 89.2161 713.995 89.2161 713.995 105.437C701.231 92.1413 683.813 83.8977 662.539 83.8977ZM618.796 169.657C618.796 140.805 640.867 118.068 666.395 118.068 691.924 118.068 713.995 140.805 713.995 169.657 713.995 198.509 691.924 221.245 666.395 221.245 640.867 221.245 618.796 198.509 618.796 169.657Z" fill-rule="evenodd" transform="matrix(1.00406 0 0 1 0 184.293)"/><path d="M874.611 118.068C854.002 118.068 837.249 135.619 837.249 156.228L837.249 271.238 802.413 271.238 802.413 89.2161 837.249 89.2161 837.249 105.836C847.487 92.6731 862.511 83.8977 882.189 83.8977 906.654 83.8977 925.401 95.9971 936.304 114.611 948.403 96.6619 968.081 83.8977 991.881 83.8977 1031.64 83.8977 1056.37 115.941 1056.5 155.563L1056.5 271.238 1021.66 271.238 1021.66 156.095C1021.66 135.486 1004.91 117.935 984.303 117.935 963.694 117.935 946.941 135.486 946.941 156.095L946.941 271.238 912.105 271.238 912.105 156.095C911.972 135.486 895.219 118.068 874.611 118.068Z" transform="matrix(1.00406 0 0 1 0 184.293)"/><path d="M1242.38 109.825C1226.82 93.7368 1205.55 83.8977 1180.95 83.8977 1129.1 83.8977 1092.13 127.907 1092.13 180.294 1092.13 232.68 1128.96 276.69 1180.95 276.69 1205.55 276.69 1226.82 266.718 1242.38 250.762L1242.38 271.238 1277.21 271.238 1277.21 89.2161 1242.38 89.2161ZM1127.1 180.294C1127.1 145.591 1153.69 118.068 1184.81 118.068 1215.79 118.068 1242.51 145.458 1242.51 180.294 1242.51 214.996 1215.92 242.519 1184.81 242.519 1153.69 242.386 1127.1 214.996 1127.1 180.294Z" fill-rule="evenodd" transform="matrix(1.00406 0 0 1 0 184.293)"/><path d="M117.138 175.773C117.138 143.464 143.331 117.138 175.773 117.138 208.082 117.138 234.408 143.331 234.408 175.773 234.408 208.082 208.215 234.408 175.773 234.408 143.464 234.408 117.138 208.082 117.138 175.773Z" fill="#1ABCFE" transform="matrix(1.00406 0 0 1 0 184.293)"/><path d="M0 292.911C0 260.602 26.1931 234.275 58.6353 234.275L117.271 234.275 117.271 292.911C117.271 325.22 91.0776 351.546 58.6353 351.546 26.1931 351.546 0 325.353 0 292.911Z" fill="#0ACF83" transform="matrix(1.00406 0 0 1 0 184.293)"/><path d="M117.138 0 117.138 117.138 175.773 117.138C208.082 117.138 234.408 90.9446 234.408 58.5024 234.408 26.1931 208.215-0.13296 175.773-0.13296L117.138-0.13296Z" fill="#FF7262" transform="matrix(1.00406 0 0 1 0 184.293)"/><path d="M0 58.6353C0 90.9446 26.1931 117.271 58.6353 117.271L117.271 117.271 117.271 0 58.6353 0C26.1931 0 0 26.1931 0 58.6353Z" fill="#F24E1E" transform="matrix(1.00406 0 0 1 0 184.293)"/><path d="M0 175.773C0 208.082 26.1931 234.408 58.6353 234.408L117.271 234.408 117.271 117.138 58.6353 117.138C26.1931 117.138 0 143.464 0 175.773Z" fill="#A259FF" transform="matrix(1.00406 0 0 1 0 184.293)"/></g></svg>