<svg width="75" height="91" xmlns="http://www.w3.org/2000/svg" xmlns:xlink="http://www.w3.org/1999/xlink" xml:space="preserve" overflow="hidden"><g transform="translate(-397 -300)"><path d="M62.7319 563.991 56.1704 570.552C66.9074 581.289 66.9074 598.588 56.1704 609.126 45.4334 619.863 28.1349 619.863 17.5967 609.126 6.85975 598.389 6.85975 581.09 17.5967 570.552L17.5967 570.552 34.597 553.552 36.983 551.166 36.983 551.166 36.983 538.341 11.3335 563.991C-2.9825 578.307-2.9825 601.371 11.3335 615.687 25.6495 630.003 48.7142 630.003 62.7319 615.687 77.0479 601.272 77.0479 578.307 62.7319 563.991Z" fill="#EE4C2C" transform="matrix(1 0 0 1.00755 396.658 -240.801)"/><path d="M54.6792 557.628C54.6792 560.264 52.5427 562.4 49.9072 562.4 47.2717 562.4 45.1352 560.264 45.1352 557.628 45.1352 554.993 47.2717 552.856 49.9072 552.856 52.5427 552.856 54.6792 554.993 54.6792 557.628Z" fill="#EE4C2C" transform="matrix(1 0 0 1.00755 396.658 -240.801)"/></g></svg>