<svg width="500" height="500" viewBox="0 0 500 500" fill="none" xmlns="http://www.w3.org/2000/svg">
<rect width="500" height="500" rx="150" fill="white"/>
<path d="M250.915 100.346V177.483M250.915 100.346L185.927 136.836V50M250.915 100.346L316.362 136.836V50M250.915 177.483L185.927 216.282M250.915 177.483L316.362 216.282M185.927 216.282V295.727M185.927 216.282L250.915 254.619M185.927 295.727L250.915 334.988M185.927 295.727L117.735 334.988M250.915 334.988V254.619M250.915 334.988L316.362 295.727M250.915 254.619L316.362 216.282M316.362 295.727V216.282M316.362 295.727L384.096 334.988M384.096 334.988V408.43L383.62 408.722M384.096 334.988L316.362 372.864L383.62 408.722M384.096 334.988L450 295.727M384.096 334.988L383.62 254.619L450 295.727M117.735 334.988V254.619L50 295.727M117.735 334.988V413.51M117.735 334.988L50 295.727M117.735 334.988L185.927 372.864L117.735 413.51M117.735 413.51L185.927 450L250.915 413.51L316.362 450L383.62 408.722M50 295.727V216.282L117.735 177.483V95.2656L185.927 50M185.927 50L250.915 87.8753L316.362 50M316.362 50L384.096 95.2656V177.483L450 216.282V295.727" stroke="black" stroke-width="18" stroke-linejoin="round"/>
</svg>
